# xmcd
#
# Track frame offsets:
#	150
#	14833
#	32957
#	50080
#	65100
#	77806
#	90869
#	109348
#	125929
#	141059
#	157647
#	174456
#
# Disc length: 2543 seconds
#
# Revision: 0
# Processed by: cddbd v1.5PL3 Copyright (c) Steve Scherf et al.
# Submitted via: dBpowerAMP V4.0
#
DISCID=a609ed0c
DTITLE=Rob Crosby - One light in the dark
DYEAR=1900
DGENRE=
TTITLE0=One Light In The Dark
TTITLE1=Beyond The Passion
TTITLE2=Pray For Me
TTITLE3=Never Get Enough
TTITLE4=Secret Place
TTITLE5=How Far Do I Have To Fall
TTITLE6=I'll Be Near
TTITLE7=You're All Over Me
TTITLE8=I Can Bend
TTITLE9=Rise Above It
TTITLE10=She's A Natural
TTITLE11=Lost In Heaven
EXTD=
EXTT0=
EXTT1=
EXTT2=
EXTT3=
EXTT4=
EXTT5=
EXTT6=
EXTT7=
EXTT8=
EXTT9=
EXTT10=
EXTT11=
PLAYORDER=
